<svg width="48" height="48" viewBox="0 0 512 512" fill="none" xmlns="http://www.w3.org/2000/svg" class="h-12 w-12 flex-none" aria-hidden="true"><rect width="512" height="512" fill="white"></rect><path fill-rule="evenodd" clip-rule="evenodd" d="M0 0H512V512H0V0ZM436 256C436 355.411 355.411 436 256 436C156.589 436 76 355.411 76 256C76 156.589 156.589 76 256 76C355.411 76 436 156.589 436 256ZM210 198C203.373 198 198 203.373 198 210V302C198 308.627 203.373 314 210 314H302C308.627 314 314 308.627 314 302V210C314 203.373 308.627 198 302 198H210Z" fill="url(#paint0_linear)"></path><defs><linearGradient id="paint0_linear" x1="256" y1="0" x2="256" y2="512" gradientUnits="userSpaceOnUse"><stop stop-color="#2f66fa"></stop><stop offset="1" stop-color="#134bdc"></stop></linearGradient></defs></svg>